<?xml version="1.0" standalone="no"?>
<!DOCTYPE svg PUBLIC "-//W3C//DTD SVG 20010904//EN"
 "http://www.w3.org/TR/2001/REC-SVG-20010904/DTD/svg10.dtd">
<svg version="1.0" xmlns="http://www.w3.org/2000/svg"
 width="896.000000pt" height="896.000000pt" viewBox="0 0 896.000000 896.000000"
 preserveAspectRatio="xMidYMid meet">
<metadata>
Created by potrace 1.14, written by Peter Selinger 2001-2017
</metadata>
<g transform="translate(0.000000,896.000000) scale(0.100000,-0.100000)"
fill="#000000" stroke="none">
<path d="M110 8229 l0 -176 42 -84 c23 -46 43 -86 43 -89 9 -35 18 -60 24 -60
3 0 12 -15 20 -32 18 -44 65 -145 203 -438 22 -47 56 -119 75 -160 19 -41 51
-109 71 -150 20 -41 37 -77 38 -80 0 -3 19 -43 41 -90 147 -308 167 -351 165
-362 -1 -5 2 -8 8 -8 5 0 10 -9 10 -20 0 -11 5 -20 10 -20 6 0 10 -8 10 -18 0
-10 4 -22 9 -28 5 -5 36 -67 69 -139 65 -141 113 -243 203 -433 33 -68 59
-125 59 -126 0 -2 27 -62 61 -132 60 -127 83 -176 172 -365 110 -235 191 -407
237 -504 67 -141 110 -238 110 -246 0 -5 4 -9 10 -9 5 0 9 -3 8 -7 -2 -8 46
-118 62 -143 6 -8 13 -22 16 -30 14 -33 40 -92 104 -226 37 -77 71 -151 75
-165 4 -13 11 -26 14 -29 4 -3 22 -39 40 -80 19 -41 67 -144 108 -229 40 -84
73 -155 73 -156 0 -3 44 -97 151 -320 23 -49 43 -92 44 -95 0 -3 15 -35 33
-72 18 -38 46 -98 64 -135 18 -38 33 -70 33 -73 1 -3 22 -48 47 -100 67 -140
121 -255 163 -345 21 -44 53 -114 73 -155 19 -41 37 -82 38 -90 2 -8 8 -16 13
-18 6 -2 11 -8 11 -14 0 -5 12 -33 26 -62 14 -28 26 -53 26 -56 0 -3 18 -42
39 -86 22 -45 39 -86 39 -92 0 -5 7 -15 15 -22 9 -7 14 -15 11 -17 -4 -4 63
-149 98 -213 8 -14 15 -28 15 -32 1 -4 33 -74 71 -154 39 -81 70 -148 70 -150
0 -2 69 -150 157 -334 86 -179 123 -261 123 -271 0 -13 1515 -7 1516 6 1 11 9
31 53 128 17 38 31 75 31 83 0 8 4 14 10 14 5 0 12 16 16 35 3 19 10 35 15 35
5 0 9 7 9 15 0 9 8 30 17 48 9 18 18 34 18 37 2 8 16 41 36 85 9 22 41 94 69
160 29 66 61 139 71 162 23 51 24 69 3 108 -8 17 -44 91 -79 165 -98 209 -149
319 -186 395 -18 39 -34 72 -35 75 0 3 -28 63 -62 133 -34 71 -62 130 -62 132
0 2 -36 79 -81 172 -91 190 -122 256 -124 263 -2 5 -40 88 -120 255 -26 55
-62 132 -80 170 -18 39 -52 111 -76 160 -23 50 -44 96 -45 104 -2 8 -8 17 -14
21 -7 4 -11 10 -11 14 1 6 -39 95 -80 180 -10 22 -19 46 -19 53 0 7 -4 13 -9
13 -5 0 -13 10 -17 23 -4 12 -29 69 -57 127 -27 58 -62 132 -77 165 -15 33
-48 103 -73 155 -25 52 -64 136 -87 185 -138 296 -194 411 -201 420 -5 5 -9
17 -9 27 0 10 -5 18 -12 18 -6 0 -9 3 -6 6 3 3 -13 44 -37 92 -23 48 -53 110
-65 137 -31 69 -91 195 -134 284 -20 41 -36 80 -36 88 0 7 -4 13 -10 13 -5 0
-10 4 -10 10 0 10 -38 95 -131 287 -33 67 -59 124 -59 126 0 3 -28 62 -62 133
-34 71 -63 135 -64 143 -2 8 -8 17 -14 21 -7 4 -11 10 -11 14 1 6 -39 95 -80
180 -10 22 -19 46 -19 53 0 7 -4 13 -9 13 -5 0 -13 10 -17 23 -7 23 -74 168
-125 270 -16 32 -29 65 -29 72 0 7 -4 15 -8 17 -4 2 -21 32 -36 68 -16 36 -55
119 -86 185 -32 66 -74 156 -95 200 -21 44 -60 127 -88 185 -28 58 -51 107
-52 110 -2 9 -33 74 -88 190 -30 63 -70 149 -90 190 -54 116 -134 286 -179
380 l-40 86 -1059 0 -1059 0 0 -177z"/>
<path d="M6629 8402 c-15 -3 -76 -137 -71 -154 1 -5 -2 -8 -8 -8 -5 0 -10 -7
-10 -15 0 -8 -4 -23 -10 -33 -5 -9 -22 -48 -38 -87 -16 -38 -56 -133 -88 -210
-32 -77 -59 -142 -60 -145 -1 -7 -37 -93 -85 -205 -18 -42 -100 -242 -116
-280 -8 -22 -24 -57 -35 -77 -10 -21 -18 -39 -18 -40 2 -5 -24 -72 -60 -153
-5 -11 -23 -54 -40 -95 -17 -41 -36 -86 -42 -100 -6 -14 -12 -27 -12 -30 -1
-3 -16 -41 -35 -85 -18 -44 -40 -96 -48 -115 -8 -19 -18 -44 -23 -55 -9 -20
-13 -30 -77 -185 -19 -47 -40 -96 -46 -110 -6 -14 -11 -27 -12 -30 -4 -13 -20
-50 -41 -98 -13 -29 -24 -54 -24 -56 0 -2 -8 -21 -17 -42 -9 -22 -17 -41 -18
-44 -1 -3 -6 -16 -12 -30 -6 -14 -34 -81 -63 -150 -29 -69 -57 -136 -63 -150
-6 -14 -11 -27 -12 -30 -1 -3 -6 -16 -12 -30 -6 -14 -23 -54 -37 -90 -15 -36
-33 -78 -41 -95 -8 -16 -46 -109 -86 -205 -83 -204 -96 -235 -114 -275 -7 -16
-41 -97 -75 -180 -34 -82 -71 -170 -82 -195 -11 -25 -21 -49 -22 -55 -1 -5 -9
-26 -18 -45 -9 -19 -46 -107 -83 -196 l-67 -161 31 -65 c17 -36 31 -70 31 -75
0 -6 7 -16 15 -23 8 -6 14 -15 13 -18 -1 -4 15 -42 35 -85 60 -124 87 -185 87
-195 0 -5 7 -15 15 -22 9 -7 14 -15 11 -17 -2 -3 8 -30 24 -61 15 -31 47 -97
70 -147 23 -49 48 -103 56 -119 8 -16 14 -35 14 -43 0 -7 5 -13 10 -13 6 0 10
-4 10 -9 0 -9 40 -97 133 -291 22 -47 41 -87 41 -90 1 -3 14 -31 29 -64 15
-32 27 -62 27 -67 0 -5 4 -9 9 -9 5 0 11 -11 15 -23 3 -13 34 -84 69 -158 36
-74 78 -163 94 -199 17 -36 56 -121 88 -190 32 -69 60 -127 61 -129 2 -2 13
18 25 45 11 27 27 63 35 81 8 17 14 34 14 37 0 3 11 29 24 58 21 48 37 85 41
98 1 3 6 16 12 30 6 14 32 77 58 140 26 63 56 134 66 157 10 23 19 46 19 50 0
5 9 25 20 46 11 20 18 37 15 37 -2 0 4 16 15 35 11 20 20 40 20 46 0 9 16 48
50 124 5 11 21 49 35 85 14 36 30 74 35 85 28 60 150 365 150 374 0 6 4 11 8
11 5 0 14 19 21 42 7 23 24 65 37 94 13 29 24 55 24 57 0 3 8 22 17 43 9 22
17 41 18 44 8 27 21 40 39 40 l23 0 1 -1657 c0 -912 1 -1661 1 -1666 1 -4 493
-6 1094 -5 l1092 3 0 3960 0 3960 -1080 0 c-594 0 -1087 -1 -1096 -3z"/>
<path d="M111 3698 l-1 -3218 1059 0 1060 0 -1 962 0 963 -54 113 c-30 63 -54
116 -54 118 0 2 -25 54 -56 116 -30 62 -55 113 -54 113 1 0 -22 50 -50 110
-29 61 -63 135 -77 165 -14 30 -46 98 -71 150 -59 125 -105 224 -107 230 -1 3
-14 30 -28 60 -15 30 -27 61 -27 68 0 6 -4 12 -10 12 -5 0 -10 4 -10 9 0 5
-23 58 -51 118 -28 59 -60 128 -72 153 -11 25 -21 47 -22 50 -1 3 -21 46 -44
95 -112 232 -171 357 -171 361 0 2 -27 61 -61 131 -75 158 -132 278 -239 508
-23 50 -59 126 -80 170 -21 44 -52 109 -68 145 -16 36 -53 114 -81 174 -28 59
-67 143 -87 185 -20 42 -51 108 -70 147 -18 40 -54 116 -80 170 -25 55 -61
131 -79 169 -18 39 -51 108 -73 155 -21 47 -55 119 -75 160 -19 41 -58 125
-86 185 -28 61 -58 124 -65 140 -13 26 -15 -393 -15 -3187z"/>
</g>
</svg>
